<svg width="765" height="447" viewBox="0 0 765 447" fill="none" xmlns="http://www.w3.org/2000/svg">
<path fill-rule="evenodd" clip-rule="evenodd" d="M136.121 429.298C128.913 435.276 133.14 446.995 142.505 446.995L385.614 446.995C387.945 446.995 390.203 446.181 391.998 444.693L501.424 353.941C506.242 349.945 506.247 342.555 501.434 338.554L452.111 297.548C449.364 295.264 445.608 294.619 442.257 295.855L360.368 326.066C353.146 328.73 345.748 322.577 347.052 314.99L361.829 228.993C362.434 225.471 361.114 221.894 358.366 219.61L313.502 182.31C309.797 179.23 304.421 179.23 300.716 182.31L3.62679 429.306C-3.56965 435.289 0.661074 446.995 10.0198 446.995L79.8451 446.995C82.1764 446.995 84.4344 446.181 86.2288 444.693L280.835 283.298C285.086 279.772 291.39 280.361 294.916 284.612C298.441 288.863 297.853 295.167 293.602 298.693L136.121 429.298ZM610.591 429.306C617.788 435.289 613.557 446.995 604.198 446.995L448.274 446.995C438.909 446.995 434.682 435.276 441.89 429.298L519.948 364.561C523.654 361.488 529.023 361.491 532.725 364.569L610.591 429.306Z" fill="white"/>
<path fill-rule="evenodd" clip-rule="evenodd" d="M402.39 218.003C401.784 221.524 403.104 225.101 405.852 227.386L450.716 264.685C454.422 267.766 459.797 267.766 463.502 264.685L760.591 17.6897C767.788 11.7067 763.557 0.000159911 754.199 0.000157458L160.02 1.75194e-06C150.661 -7.00535e-07 146.43 11.7066 153.627 17.6896L312.107 149.448C314.854 151.731 318.61 152.376 321.961 151.14L403.85 120.93C411.072 118.265 418.47 124.418 417.167 132.005L402.39 218.003Z" fill="#FF4848"/>
</svg>
